HIERARCHY
ROOT Hips
{
  OFFSET 263.056 91.6644 -274.608
  CHANNELS 6 Xposition Yposition Zposition Zrotation Xrotation Yrotation
  JOINT LeftUpLeg
  {
    OFFSET 8.64259 1.95398 -2.38835
    CHANNELS 3 Zrotation Xrotation Yrotation
    JOINT LeftLeg
    {
      OFFSET 43.7702 0 0
      CHANNELS 3 Zrotation Xrotation Yrotation
      JOINT LeftFoot
      {
        OFFSET 40.6238 0 0
        CHANNELS 3 Zrotation Xrotation Yrotation
        JOINT LeftToeBase
        {
          OFFSET 12.7242 0 0
          CHANNELS 3 Zrotation Xrotation Yrotation
          End Site
          {
            OFFSET 0 0 0
          }
        }
      }
    }
  }
  JOINT RightUpLeg
  {
    OFFSET -8.2249 1.95398 -2.59336
    CHANNELS 3 Zrotation Xrotation Yrotation
    JOINT RightLeg
    {
      OFFSET 43.5653 0 0
      CHANNELS 3 Zrotation Xrotation Yrotation
      JOINT RightFoot
      {
        OFFSET 40.6238 0 0
        CHANNELS 3 Zrotation Xrotation Yrotation
        JOINT RightToeBase
        {
          OFFSET 12.7242 0 0
          CHANNELS 3 Zrotation Xrotation Yrotation
          End Site
          {
            OFFSET 0 0 0
          }
        }
      }
    }
  }
  JOINT Spine
  {
    OFFSET 0.165834 0.87714 6.61349
    CHANNELS 3 Zrotation Xrotation Yrotation
    JOINT Spine1
    {
      OFFSET 7.38963 1.71661e-005 0
      CHANNELS 3 Zrotation Xrotation Yrotation
      JOINT Spine2
      {
        OFFSET 11.9445 1.14441e-005 0
        CHANNELS 3 Zrotation Xrotation Yrotation
        JOINT Spine3
        {
          OFFSET 14.7254 4.19617e-005 0
          CHANNELS 3 Zrotation Xrotation Yrotation
          JOINT Spine4
          {
            OFFSET 10.9679 0 0
            CHANNELS 3 Zrotation Xrotation Yrotation
            JOINT RightShoulder
            {
              OFFSET 2.46616 -1.6653 3.69651
              CHANNELS 3 Zrotation Xrotation Yrotation
              JOINT RightArm
              {
                OFFSET 13.0012 0 0
                CHANNELS 3 Zrotation Xrotation Yrotation
                JOINT RightForeArm
                {
                  OFFSET 28.7848 1.52588e-005 0
                  CHANNELS 3 Zrotation Xrotation Yrotation
                  JOINT RightHand
                  {
                    OFFSET 26.5688 1.52588e-005 0
                    CHANNELS 3 Zrotation Xrotation Yrotation
                    End Site
                    {
                      OFFSET 0 0 0
                    }
                  }
                }
              }
            }
            JOINT LeftShoulder
            {
              OFFSET 2.38034 -1.29275 -3.7523
              CHANNELS 3 Zrotation Xrotation Yrotation
              JOINT LeftArm
              {
                OFFSET 16.3182 6.10352e-005 0
                CHANNELS 3 Zrotation Xrotation Yrotation
                JOINT LeftForeArm
                {
                  OFFSET 27.0901 0 0
                  CHANNELS 3 Zrotation Xrotation Yrotation
                  JOINT LeftHand
                  {
                    OFFSET 24.5451 1.52588e-005 0
                    CHANNELS 3 Zrotation Xrotation Yrotation
                    End Site
                    {
                      OFFSET 0 0 0
                    }
                  }
                }
              }
            }
            JOINT Neck
            {
              OFFSET 5.0226 -0.0266342 0
              CHANNELS 3 Zrotation Xrotation Yrotation
              JOINT Head
              {
                OFFSET 6.69364 2.86102e-005 0
                CHANNELS 3 Zrotation Xrotation Yrotation
                End Site
                {
                  OFFSET 0 0 0
                }
              }
            }
          }
        }
      }
    }
  }
}
MOTION
Frames:	12
Frame Time:	0.0416667
53.9872 89.6089 13.0793 33.3369 -79.8683 37.1814 -164.529 51.086 87.7517 -38.3657 9.80466 -7.3465 55.7696 -2.56539 6.48508 44.8672 20.9509 13.9531 173.62 4.72999 75.2402 -27.9849 -7.06678 -6.42658 51.4721 0.92797 0.992277 64.1697 2.10794 -0.188833 1.04102 8.53826 -90.0581 9.80072 2.04886 -0.278395 -1.86866 2.03462 -0.368337 -24.4166 2.03776 0.350518 -4.40395 2.03777 0.350506 86.0021 -45.778 -108.245 26.098 -8.51332 4.42136 -25.2891 7.54188 -97.9487 -35.2951 -3.41824 7.05887 -99.4987 -41.7548 61.5014 -57.7996 12.995 38.8706 11.1179 9.50206 -59.0414 23.7402 2.49729 6.76519 5.14662 7.20449 0.0542905 14.0244 8.10817 7.18334 
58.4056 91.2108 20.931 43.2243 -77.8652 49.1275 -168.366 49.0837 90.3879 -25.224 14.4322 -6.63776 49.8289 -7.87899 4.11655 43.9307 19.1813 11.9077 171.78 -3.9747 75.3598 -17.0839 -5.94595 -6.04969 37.7771 4.88031 5.18474 44.9785 1.26373 0.633607 1.29232 8.28752 -90.1953 10.3074 2.48547 -0.600999 -1.36132 2.45661 -0.709878 -23.9156 2.55111 0.174256 -3.90295 2.5511 0.174242 86.4362 -45.4087 -107.675 26.074 -8.43605 8.18379 -23.9648 8.89436 -100.382 -35.5714 -3.22454 6.2436 -97.4992 -40.5166 64.1735 -59.8821 10.4309 42.4108 9.71398 6.64793 -61.1255 23.7555 2.05074 4.82417 2.84982 5.35426 0.158053 14.3405 6.01261 5.14307 
62.6537 92.7098 28.6565 47.4268 -76.046 56.4282 -170.319 48.2135 92.9443 -19.2894 14.7315 -5.88082 47.9716 -9.31371 3.64251 42.6197 15.5013 1.03385 174.133 -8.63501 79.0051 -15.8327 -5.05616 -7.09785 33.0822 5.81122 6.65319 26.6719 0.197443 -4.17225 1.5837 7.96575 -90.3547 10.9578 2.98883 -0.989211 -0.710221 2.9424 -1.1199 -23.2729 3.14783 -0.0443531 -3.26028 3.14783 -0.0443583 86.2945 -45.4385 -107.891 26.1451 -8.57407 12.6667 -23.7482 8.22079 -100.482 -36.6787 -3.7775 7.62855 -95.9843 -39.2666 66.146 -59.9931 7.58148 45.1939 9.74946 4.69872 -63.7048 22.9685 1.74169 3.76848 0.63157 3.88808 -0.426129 14.5765 4.45368 3.69165 
66.3093 93.0368 35.8633 48.9289 -74.58 59.7824 -169.665 49.349 93.6326 -22.568 10.0138 -6.16419 49.2974 -8.78461 3.30957 38.0344 10.5646 3.60617 176.232 -8.29208 82.0728 -25.0417 0.0964691 -6.42289 39.095 3.13922 3.49419 27.0523 0.119779 -2.9103 1.79756 7.74751 -90.3019 11.3972 3.43589 -0.947589 -0.26963 3.39085 -1.09805 -22.8413 3.56164 0.130152 -2.82869 3.56164 0.130142 86.1962 -45.4783 -108.035 27.1304 -9.14759 15.8294 -22.7328 7.10415 -98.3382 -37.2006 -3.81492 7.50417 -95.0035 -39.1452 67.7207 -57.9516 5.36351 45.3934 9.13915 2.854 -65.3287 22.9343 1.67434 3.47943 0.989099 2.66214 -1.39788 14.0026 3.22878 2.68556 
69.9762 92.562 42.9624 54.6238 -71.2796 66.0842 -169.051 49.0232 91.5659 -27.7875 7.58 -5.95073 48.8177 -9.30329 1.84601 34.4302 6.30228 6.29869 176.779 -5.9615 84.9319 -38.2366 3.10293 -5.91018 39.5131 3.00659 3.31361 27.3891 -0.107299 0.180634 1.68423 7.64295 -90.0489 11.5981 3.32755 -0.441415 -0.0687155 3.30489 -0.5876 -22.6374 3.3062 0.580182 -2.62475 3.3062 0.580173 85.3273 -47.4205 -108.765 27.3434 -9.22587 18.0783 -21.5251 5.56938 -93.691 -33.3781 -3.36572 7.26867 -94.5062 -38.7974 68.4125 -54.2839 3.54083 43.5357 7.56506 1.05605 -65.8383 23.5546 1.8726 4.1356 1.98037 1.50441 -3.09079 13.2896 2.15447 1.33018 
73.2916 92.1106 50.0332 62.551 -68.2798 73.0936 -168.545 45.4289 89.0358 -32.3731 13.5855 -6.41611 50.8489 -6.84269 4.65053 29.8494 1.5589 -3.38518 176.718 -3.13475 87.1926 -53.1508 3.05926 -5.31663 37.324 3.90555 4.29838 25.0386 -0.499243 2.81786 1.33083 7.75887 -89.9028 11.3606 2.69364 -0.0757428 -0.3075 2.6877 -0.194312 -22.8641 2.59177 0.737864 -2.85141 2.59177 0.737867 84.5433 -46.5733 -110.273 28.6344 -10.0047 20.5114 -19.1664 2.62755 -87.7696 -29.9885 -2.76283 6.18658 -95.1238 -41.7445 68.4668 -48.9833 2.45189 39.85 5.93376 -0.423544 -65.5374 25.0099 2.0896 4.56421 1.85676 1.19557 -1.0313 13.3094 1.1475 -1.26132 
76.4878 91.4822 56.9081 69.1522 -65.673 77.8045 -168.404 41.024 86.5021 -38.4885 16.6359 -6.61581 57.7781 0.81271 9.63873 31.187 3.24614 -9.19932 175.504 1.1332 87.5927 -68.0428 4.35988 -4.39475 36.0593 3.7992 4.28241 26.2179 -0.581885 4.99843 0.968081 7.93308 -89.5781 11.0017 2.12266 0.636197 -0.667639 2.14861 0.542114 -23.2124 1.8333 1.24488 -3.19973 1.83331 1.24488 83.3008 -47.2749 -111.951 29.4629 -11.4507 22.6272 -16.9081 -0.829554 -81.8628 -26.742 -2.64659 6.95278 -95.2861 -43.7266 68.8837 -43.8117 0.686347 35.5451 4.76334 -1.94818 -66.1568 24.474 2.04465 4.56589 1.82088 1.14953 -0.503962 13.117 0.76008 -3.08576 
79.7052 90.5856 63.7008 71.8346 -64.6594 78.9054 -167.518 37.2154 84.8421 -43.8214 17.221 -7.00967 62.549 7.71063 14.3039 36.6568 8.43044 -9.39488 174.692 7.99758 88.4038 -82.482 8.63598 -4.08353 36.4331 2.38391 2.90468 27.9565 -0.379992 4.69563 0.836128 8.08978 -89.1549 10.6793 2.05439 1.49257 -0.990722 2.11807 1.40069 -23.5269 1.51091 2.04093 -3.51426 1.5109 2.04093 82.3396 -49.4419 -112.621 29.8286 -13.1118 23.8605 -14.4285 -2.70729 -76.3376 -22.3198 -2.11674 6.36102 -96.8961 -44.8837 66.7825 -38.3588 -1.43009 31.3355 4.9186 -2.51353 -68.7663 26.3385 2.5291 5.84028 3.0272 0.880571 -2.79487 13.0879 0.895958 -2.99917 
82.7544 89.7838 69.9591 72.5683 -63.6503 79.067 -166.5 33.717 83.9076 -46.8494 16.6067 -7.19459 63.2275 11.4042 19.4673 47.0869 17.5033 -12.6598 173.865 17.8173 90.6784 -95.4592 12.0465 -4.14102 37.0661 0.840087 1.41145 30.6293 0.0320876 1.8595 0.631157 8.26139 -88.8911 10.3305 1.76476 2.04941 -1.34071 1.85323 1.96977 -23.867 1.06747 2.48484 -3.85435 1.06746 2.48481 81.0713 -50.2911 -114.195 30.8691 -14.0886 24.8418 -13.847 -4.66963 -71.1947 -17.7594 -1.56195 5.50548 -98.6849 -45.8036 64.3861 -33.257 -3.42078 25.4917 4.62886 -2.89762 -71.5769 28.7642 2.97499 6.55104 5.75595 0.905934 -3.66135 12.2925 1.09453 -3.51794 
86.2352 89.3237 75.7518 73.7901 -59.5012 80.2426 -168.217 29.1949 83.4229 -47.7252 16.0181 -5.89801 66.4651 15.5824 19.9357 49.7142 19.8463 -12.4346 170.001 28.6419 93.3495 -104.265 14.8164 -4.0805 36.7059 -0.505076 0.164212 32.4641 0.202166 0.65865 0.164821 8.37183 -88.8659 10.1181 0.845385 2.18136 -1.5543 0.940555 2.14206 -24.075 0.150915 2.33451 -4.06237 0.150901 2.3345 80.6876 -50.9631 -114.504 32.1565 -16.1557 26.8623 -12.6263 -6.71803 -66.7771 -16.3348 -1.34048 4.77974 -100.475 -44.6613 61.2109 -30.0012 -4.70213 19.5755 7.89295 -1.4013 -74.7131 31.9093 3.90719 8.56761 7.75517 0.775029 -3.99575 10.8322 1.15497 -3.40375 
90.3697 89.5356 81.8334 71.8922 -56.2954 79.4765 -170.296 24.6041 84.1598 -45.2933 19.1739 -4.87979 66.1717 16.9702 22.5398 52.2966 22.5831 -10.6497 166.874 39.524 97.6078 -108.027 15.7308 -4.3078 38.827 -1.20636 -0.509289 34.2495 0.352065 -0.761489 -0.254516 8.24224 -89.0054 10.3852 -0.051453 1.98013 -1.28729 0.0357151 1.98047 -23.8113 -0.644089 1.87319 -3.79862 -0.644092 1.87318 80.2023 -51.029 -115.189 33.9923 -17.7459 30.7434 -12.2577 -7.67901 -64.7155 -15.1495 -0.993081 2.62267 -99.5698 -42.9959 61.9131 -28.8327 -5.90507 14.641 11.6086 -0.265255 -80.6428 31.4847 4.19849 9.65348 8.87349 1.14494 -4.38236 9.42671 1.70012 -3.20561 
94.7452 90.5182 87.9209 71.792 -53.5091 80.0065 -172.411 18.2027 85.0306 -40.6918 21.5651 -3.27368 64.3069 15.3378 21.96 54.0972 24.9493 -8.1957 164.605 47.9824 100.453 -107.089 15.6979 -4.15493 42.3939 -1.18238 -0.50228 37.4405 0.485617 -3.47444 -0.65942 8.11728 -89.1797 10.6437 -0.935645 1.71574 -1.02808 -0.859224 1.75524 -23.5597 -1.408 1.35531 -3.54709 -1.40799 1.35531 80.2098 -51.6908 -114.924 35.5495 -18.9413 35.8783 -14.4152 -8.55095 -65.2058 -13.1231 -0.801935 1.90553 -98.2859 -41.3987 63.2713 -28.82 -6.09585 11.7079 14.878 -1.35001 -88.7531 31.9521 4.30119 9.78428 8.53378 1.61687 -5.30667 8.85013 2.47847 -2.10329 
